<svg width="28" height="28" viewBox="0 0 28 28" fill="none" xmlns="http://www.w3.org/2000/svg">
    <path d="M28 4.6665H0V23.3334H28V4.6665Z" fill="#D80027" />
    <path d="M9.78473 10.3669L10.5862 12.8337H13.18L11.0816 14.3583L11.8831 16.8252L9.78473 15.3006L7.68632 16.8252L8.48782 14.3583L6.3894 12.8337H8.98318L9.78473 10.3669Z"
          fill="#FFDA44" />
    <path d="M14.8366 18.5715L14.0496 17.9998L13.2628 18.5715L13.5633 17.6465L12.7764 17.0747H13.749L14.0496 16.1496L14.3503 17.0747H15.3229L14.536 17.6464L14.8366 18.5715Z"
          fill="#FFDA44" />
    <path d="M16.8895 15.746H15.9169L15.6163 16.671L15.3157 15.7461L14.343 15.746L15.13 15.1743L14.8294 14.2492L15.6163 14.8209L16.4032 14.2492L16.1026 15.1743L16.8895 15.746Z"
          fill="#FFDA44" />
    <path d="M16.8895 12.2535L16.1026 12.8252L16.4032 13.7502L15.6163 13.1786L14.8294 13.7503L15.13 12.8252L14.343 12.2536L15.3158 12.2535L15.6163 11.3284L15.9169 12.2535H16.8895Z"
          fill="#FFDA44" />
    <path d="M14.8365 9.42797L14.536 10.3531L15.3228 10.9247L14.3502 10.9248L14.0495 11.8499L13.749 10.9247L12.7764 10.9248L13.5633 10.353L13.2627 9.42792L14.0495 9.99968L14.8365 9.42797Z"
          fill="#FFDA44" />
</svg>
