<svg width="28" height="28" viewBox="0 0 28 28" fill="none" xmlns="http://www.w3.org/2000/svg">
    <path d="M28 4.66653H0V23.3334H28V4.66653Z" fill="#F0F0F0" />
    <path d="M28 6.99963H0V9.33276H28V6.99963Z" fill="#D80027" />
    <path d="M28 11.6665H0V13.9996H28V11.6665Z" fill="#D80027" />
    <path d="M28 16.3328H0V18.6659H28V16.3328Z" fill="#D80027" />
    <path d="M28 20.9996H0V23.3327H28V20.9996Z" fill="#D80027" />
    <path d="M14 4.66653H0V14.7179H14V4.66653Z" fill="#2E52B2" />
    <path d="M5.45894 8.78415L5.23346 9.47781H4.50415L5.09428 9.90628L4.86881 10.5999L5.45894 10.1714L6.04869 10.5999L5.82327 9.90628L6.4134 9.47781H5.68403L5.45894 8.78415Z"
          fill="#F0F0F0" />
    <path d="M5.68403 11.9809L5.45894 11.2873L5.23346 11.9809H4.50415L5.09428 12.4095L4.86881 13.1031L5.45894 12.6745L6.04869 13.1031L5.82327 12.4095L6.4134 11.9809H5.68403Z"
          fill="#F0F0F0" />
    <path d="M2.60181 11.9809L2.37666 11.2873L2.15119 11.9809H1.42188L2.01201 12.4095L1.78653 13.1031L2.37666 12.6745L2.96647 13.1031L2.74105 12.4095L3.33107 11.9809H2.60181Z"
          fill="#F0F0F0" />
    <path d="M2.37666 8.78415L2.15119 9.47781H1.42188L2.01201 9.90628L1.78653 10.5999L2.37666 10.1714L2.96647 10.5999L2.74105 9.90628L3.33107 9.47781H2.60181L2.37666 8.78415Z"
          fill="#F0F0F0" />
    <path d="M5.45894 6.28085L5.23346 6.97456H4.50415L5.09428 7.40309L4.86881 8.09669L5.45894 7.66816L6.04869 8.09669L5.82327 7.40309L6.4134 6.97456H5.68403L5.45894 6.28085Z"
          fill="#F0F0F0" />
    <path d="M2.37666 6.28085L2.15119 6.97456H1.42188L2.01201 7.40309L1.78653 8.09669L2.37666 7.66816L2.96647 8.09669L2.74105 7.40309L3.33107 6.97456H2.60181L2.37666 6.28085Z"
          fill="#F0F0F0" />
    <path d="M8.54116 8.78415L8.31574 9.47781H7.58643L8.1765 9.90628L7.95114 10.5999L8.54116 10.1714L9.13102 10.5999L8.90554 9.90628L9.49568 9.47781H8.76636L8.54116 8.78415Z"
          fill="#F0F0F0" />
    <path d="M8.76636 11.9809L8.54116 11.2873L8.31574 11.9809H7.58643L8.1765 12.4095L7.95114 13.1031L8.54116 12.6745L9.13102 13.1031L8.90554 12.4095L9.49568 11.9809H8.76636Z"
          fill="#F0F0F0" />
    <path d="M11.8486 11.9809L11.6234 11.2873L11.398 11.9809H10.6687L11.2587 12.4095L11.0333 13.1031L11.6234 12.6745L12.2132 13.1031L11.9878 12.4095L12.5779 11.9809H11.8486Z"
          fill="#F0F0F0" />
    <path d="M11.6234 8.78415L11.398 9.47781H10.6687L11.2587 9.90628L11.0333 10.5999L11.6234 10.1714L12.2132 10.5999L11.9878 9.90628L12.5779 9.47781H11.8486L11.6234 8.78415Z"
          fill="#F0F0F0" />
    <path d="M8.54116 6.28085L8.31574 6.97456H7.58643L8.1765 7.40309L7.95114 8.09669L8.54116 7.66816L9.13102 8.09669L8.90554 7.40309L9.49568 6.97456H8.76636L8.54116 6.28085Z"
          fill="#F0F0F0" />
    <path d="M11.6234 6.28085L11.398 6.97456H10.6687L11.2587 7.40309L11.0333 8.09669L11.6234 7.66816L12.2132 8.09669L11.9878 7.40309L12.5779 6.97456H11.8486L11.6234 6.28085Z"
          fill="#F0F0F0" />
</svg>
