<svg width="28" height="28" viewBox="0 0 28 28" fill="none" xmlns="http://www.w3.org/2000/svg">
    <path d="M28 4.66653H0V23.3334H28V4.66653Z" fill="#F0F0F0" />
    <path d="M17.5 11.979H15.1666L14 9.95828L12.8334 11.979H10.5L11.6668 13.9997L10.5 16.0204H12.8334L14 18.0411L15.1666 16.0204H17.5L16.3332 13.9997L17.5 11.979ZM15.4333 13.9997L14.7167 15.241H13.2834L12.5667 13.9997L13.2834 12.7583H14.7167L15.4333 13.9997ZM14 11.517L14.2667 11.979H13.7333L14 11.517ZM11.85 12.7583H12.3834L12.1167 13.2203L11.85 12.7583ZM11.85 15.2411L12.1167 14.7791L12.3834 15.2411H11.85ZM14 16.4824L13.7333 16.0204H14.2668L14 16.4824ZM16.15 15.2411H15.6166L15.8833 14.7791L16.15 15.2411ZM15.6166 12.7583H16.15L15.8833 13.2203L15.6166 12.7583Z"
          fill="#2E52B2" />
    <path d="M28 5.83279H0V8.16593H28V5.83279Z" fill="#2E52B2" />
    <path d="M28 19.8328H0V22.1659H28V19.8328Z" fill="#2E52B2" />
</svg>
