<svg width="28" height="28" viewBox="0 0 28 28" fill="none" xmlns="http://www.w3.org/2000/svg">
    <path d="M28 4.66687H0V23.3331H28V4.66687Z" fill="#D80027" />
    <path d="M13.5195 11.8555L14.4817 13.1815L16.0399 12.6762L15.0762 14.001L16.0383 15.3268L14.4806 14.8196L13.5169 16.1444L13.5179 14.5063L11.9602 13.9991L13.5185 13.4938L13.5195 11.8555Z"
          fill="#F0F0F0" />
    <path d="M10.8939 17.3142C9.06353 17.3142 7.57969 15.8303 7.57969 14C7.57969 12.1697 9.06353 10.6858 10.8939 10.6858C11.4646 10.6858 12.0015 10.8301 12.4703 11.0842C11.7349 10.3649 10.7291 9.92102 9.61921 9.92102C7.36646 9.92102 5.54028 11.7473 5.54028 13.9999C5.54028 16.2526 7.36652 18.0789 9.61921 18.0789C10.7291 18.0789 11.7349 17.635 12.4703 16.9157C12.0016 17.1699 11.4646 17.3142 10.8939 17.3142Z"
          fill="#F0F0F0" />
</svg>
