<svg width="44" height="44" viewBox="0 0 44 44" fill="none" xmlns="http://www.w3.org/2000/svg">
<path d="M43.5 22C43.5 33.8741 33.8741 43.5 22 43.5C10.1259 43.5 0.5 33.8741 0.5 22C0.5 10.1259 10.1259 0.5 22 0.5C33.8741 0.5 43.5 10.1259 43.5 22Z" fill="#1C272D" stroke="#068AB4"/>
<path d="M21.6986 22.393C21.7224 22.393 21.7462 22.393 21.7748 22.393C21.7843 22.393 21.7938 22.393 21.8034 22.393C21.8176 22.393 21.8367 22.393 21.851 22.393C23.2465 22.3692 24.3753 21.8786 25.2088 20.9404C27.0425 18.8733 26.7377 15.3297 26.7044 14.9915C26.5853 12.4529 25.3851 11.2384 24.3944 10.6716C23.6561 10.2477 22.794 10.0191 21.8319 10H21.7986C21.7938 10 21.7843 10 21.7795 10H21.751C21.2223 10 20.184 10.0857 19.1885 10.6525C18.1883 11.2193 16.969 12.4338 16.85 14.9915C16.8166 15.3297 16.5118 18.8733 18.3455 20.9404C19.1742 21.8786 20.303 22.3692 21.6986 22.393ZM18.1216 15.1106C18.1216 15.0963 18.1264 15.082 18.1264 15.0725C18.2836 11.6575 20.7079 11.2907 21.7462 11.2907H21.7653C21.7748 11.2907 21.7891 11.2907 21.8034 11.2907C23.0893 11.3193 25.2755 11.8432 25.4232 15.0725C25.4232 15.0868 25.4232 15.1011 25.4279 15.1106C25.4327 15.1439 25.7661 18.3827 24.2515 20.0878C23.6514 20.7641 22.8512 21.0975 21.7986 21.1071C21.7891 21.1071 21.7843 21.1071 21.7748 21.1071C21.7653 21.1071 21.7605 21.1071 21.751 21.1071C20.7031 21.0975 19.8982 20.7641 19.3028 20.0878C17.793 18.3922 18.1169 15.1392 18.1216 15.1106Z" fill="#068AB4"/>
<path d="M31.5625 28.2704C31.5625 28.2656 31.5625 28.2608 31.5625 28.2561C31.5625 28.218 31.5577 28.1799 31.5577 28.137C31.5292 27.194 31.4672 24.9887 29.4001 24.2838C29.3858 24.2791 29.3668 24.2743 29.3525 24.2695C27.2044 23.7218 25.4184 22.4835 25.3993 22.4692C25.1088 22.2644 24.7087 22.3358 24.5039 22.6263C24.2991 22.9169 24.3705 23.317 24.6611 23.5218C24.742 23.5789 26.6377 24.8982 29.0096 25.5079C30.1193 25.9032 30.2432 27.0892 30.2765 28.1751C30.2765 28.218 30.2765 28.2561 30.2813 28.2942C30.286 28.7228 30.2575 29.3849 30.1812 29.7659C29.4097 30.2041 26.3852 31.7187 21.7843 31.7187C17.2024 31.7187 14.1589 30.1993 13.3825 29.7612C13.3063 29.3801 13.273 28.7181 13.2825 28.2894C13.2825 28.2513 13.2873 28.2132 13.2873 28.1704C13.3206 27.0844 13.4445 25.8985 14.5542 25.5031C16.9261 24.8935 18.8218 23.5694 18.9027 23.517C19.1933 23.3122 19.2647 22.9121 19.0599 22.6216C18.8551 22.331 18.455 22.2596 18.1645 22.4644C18.1454 22.4787 16.3689 23.717 14.2113 24.2648C14.1922 24.2695 14.1779 24.2743 14.1636 24.2791C12.0966 24.9887 12.0346 27.194 12.0061 28.1322C12.0061 28.1751 12.0061 28.2132 12.0013 28.2513C12.0013 28.2561 12.0013 28.2608 12.0013 28.2656C11.9965 28.5133 11.9918 29.785 12.2442 30.4232C12.2918 30.547 12.3776 30.6518 12.4919 30.7233C12.6348 30.8185 16.0593 32.9999 21.789 32.9999C27.5188 32.9999 30.9433 30.8138 31.0862 30.7233C31.1957 30.6518 31.2862 30.547 31.3339 30.4232C31.572 29.7897 31.5673 28.518 31.5625 28.2704Z" fill="#068AB4"/>
</svg>
