<?xml version="1.0" encoding="utf-8"?><svg xmlns="http://www.w3.org/2000/svg" xmlns:xlink="http://www.w3.org/1999/xlink"><symbol fill="none" viewBox="0 0 28 28" id="cn" xmlns="http://www.w3.org/2000/svg"><path d="M28 4.667H0v18.666h28V4.667z" fill="#D80027"/><path d="M9.785 10.367l.801 2.467h2.594l-2.098 1.524.801 2.467-2.098-1.524-2.099 1.524.802-2.467-2.099-1.524h2.594l.802-2.467zM14.837 18.572L14.05 18l-.787.572.3-.925-.787-.572h.973l.3-.925.301.925h.973l-.787.571.3.925zM16.89 15.746h-.973l-.3.925-.301-.925h-.973l.787-.572-.3-.925.786.572.787-.572-.3.925.787.572zM16.89 12.254l-.787.571.3.925-.787-.571-.787.571.301-.925-.787-.571h.973l.3-.926.3.926h.974zM14.836 9.428l-.3.925.787.572h-.973l-.3.925-.301-.925h-.973l.787-.572-.3-.925.787.572.786-.572z" fill="#FFDA44"/></symbol><symbol fill="none" viewBox="0 0 28 28" id="en" xmlns="http://www.w3.org/2000/svg"><path d="M28 4.667H0v18.666h28V4.667z" fill="#F0F0F0"/><path d="M28 7H0v2.333h28V7zM28 11.666H0V14h28v-2.334zM28 16.333H0v2.333h28v-2.333zM28 21H0v2.333h28V21z" fill="#D80027"/><path d="M14 4.667H0v10.05h14V4.668z" fill="#2E52B2"/><path d="M5.459 8.784l-.226.694h-.729l.59.428-.225.694.59-.429.59.429-.226-.694.59-.428h-.729l-.225-.694zM5.684 11.98l-.225-.693-.226.694h-.729l.59.428-.225.694.59-.428.59.428-.226-.694.59-.428h-.729zM2.602 11.98l-.225-.693-.226.694h-.73l.591.428-.225.694.59-.428.59.428-.226-.694.59-.428h-.73zM2.377 8.784l-.226.694h-.73l.591.428-.225.694.59-.429.59.429-.226-.694.59-.428h-.73l-.224-.694zM5.459 6.28l-.226.695h-.729l.59.428-.225.694.59-.429.59.429-.226-.694.59-.428h-.729l-.225-.694zM2.377 6.28l-.226.695h-.73l.591.428-.225.694.59-.429.59.429-.226-.694.59-.428h-.73l-.224-.694zM8.541 8.784l-.225.694h-.73l.59.428-.225.694.59-.429.59.429-.225-.694.59-.428h-.73l-.225-.694zM8.766 11.98l-.225-.693-.225.694h-.73l.59.428-.225.694.59-.428.59.428-.225-.694.59-.428h-.73zM11.849 11.98l-.226-.693-.225.694h-.73l.59.428-.225.694.59-.428.59.428-.225-.694.59-.428h-.73zM11.623 8.784l-.225.694h-.73l.59.428-.225.694.59-.429.59.429-.225-.694.59-.428h-.73l-.225-.694zM8.541 6.28l-.225.695h-.73l.59.428-.225.694.59-.429.59.429-.225-.694.59-.428h-.73l-.225-.694zM11.623 6.28l-.225.695h-.73l.59.428-.225.694.59-.429.59.429-.225-.694.59-.428h-.73l-.225-.694z" fill="#F0F0F0"/></symbol><symbol fill="none" viewBox="0 0 28 28" id="he" xmlns="http://www.w3.org/2000/svg"><path d="M28 4.667H0v18.666h28V4.667z" fill="#F0F0F0"/><path d="M17.5 11.979h-2.333L14 9.959l-1.167 2.02H10.5l1.167 2.02L10.5 16.02h2.333L14 18.041l1.167-2.02H17.5L16.333 14l1.167-2.021zm-2.067 2.02l-.716 1.242h-1.434L12.567 14l.716-1.242h1.434L15.433 14zM14 11.518l.267.462h-.534l.267-.462zm-2.15 1.241h.533l-.266.462-.267-.462zm0 2.483l.267-.462.266.462h-.533zM14 16.482l-.267-.462h.534l-.267.462zm2.15-1.24h-.533l.266-.463.267.462zm-.533-2.484h.533l-.267.462-.266-.462zM28 5.833H0v2.333h28V5.833zM28 19.833H0v2.333h28v-2.333z" fill="#2E52B2"/></symbol><symbol fill="none" viewBox="0 0 28 28" id="ru" xmlns="http://www.w3.org/2000/svg"><path d="M0 4.667v18.666h28V4.667H0z" fill="#F0F0F0"/><path d="M28 4.667H0v18.667h28V4.666z" fill="#0052B4"/><path d="M28 4.667H0v6.222h28V4.667z" fill="#F0F0F0"/><path d="M28 17.11H0v6.223h28V17.11z" fill="#D80027"/></symbol><symbol fill="none" viewBox="0 0 28 28" id="tr" xmlns="http://www.w3.org/2000/svg"><path d="M28 4.667H0v18.666h28V4.667z" fill="#D80027"/><path d="M13.52 11.855l.962 1.326 1.558-.505-.964 1.325.962 1.326-1.557-.507-.964 1.324v-1.638L11.96 14l1.558-.505.002-1.639z" fill="#F0F0F0"/><path d="M10.894 17.314a3.314 3.314 0 111.576-6.23 4.079 4.079 0 100 5.832 3.297 3.297 0 01-1.576.398z" fill="#F0F0F0"/></symbol><symbol fill="none" viewBox="0 0 28 28" id="ua" xmlns="http://www.w3.org/2000/svg"><path d="M28 4.667H0v18.666h28V4.667z" fill="#FFDA44"/><path d="M28 4.667H0V14h28V4.667z" fill="#338AF3"/></symbol></svg>