<?xml version="1.0" encoding="utf-8"?><svg xmlns="http://www.w3.org/2000/svg" xmlns:xlink="http://www.w3.org/1999/xlink"><symbol viewBox="0 0 6 9" id="arrow" xmlns="http://www.w3.org/2000/svg"><path d="M1.571 8.571L.557 7.557 3.614 4.5.557 1.443 1.571.43 5.642 4.5l-4.07 4.071z"/></symbol><symbol viewBox="0 0 16 12" id="burger" xmlns="http://www.w3.org/2000/svg"><path d="M0 0h16v2H0zM0 5h16v2H0zM0 10h16v2H0z"/></symbol><symbol viewBox="0 0 23 23" id="chat" xmlns="http://www.w3.org/2000/svg"><path d="M12.457 0C6.644 0 1.915 4.729 1.915 10.542c0 1.614.374 3.205 1.08 4.636l-2.912 6.47c-.004.01-.005.02-.01.028a1.018 1.018 0 00-.032.098c-.008.028-.017.056-.023.085-.006.03-.008.061-.011.092-.003.031-.007.062-.007.093 0 .03.004.06.007.09.003.032.005.064.012.095.005.028.014.056.023.084a.99.99 0 00.032.097l.01.029c.005.01.013.018.018.028a.968.968 0 00.12.186c.008.01.014.02.022.028a.96.96 0 00.183.156c.018.012.036.02.054.03.027.017.053.035.082.048.028.013.057.018.085.028.023.008.046.017.07.023.079.02.159.034.238.034.08 0 .16-.013.24-.034.025-.007.048-.016.073-.025.028-.01.056-.015.084-.028l6.44-2.927a10.5 10.5 0 004.664 1.097c5.813 0 10.542-4.729 10.542-10.541C22.999 4.729 18.269 0 12.457 0zm0 19.167a8.586 8.586 0 01-4.172-1.082c-.02-.01-.04-.017-.061-.026-.03-.014-.06-.03-.092-.04-.031-.01-.062-.018-.094-.025-.028-.007-.056-.014-.086-.018a.806.806 0 00-.098-.007c-.03-.001-.058-.003-.088-.001-.033.002-.064.007-.097.012-.029.005-.058.008-.087.016-.034.009-.067.021-.1.034-.02.007-.04.011-.06.02l-4.549 2.068 2.058-4.574c.009-.019.013-.039.02-.058.012-.033.024-.065.033-.1a.87.87 0 00.017-.09c.004-.03.01-.06.01-.092.002-.032.001-.063 0-.094-.002-.03-.003-.06-.007-.09-.004-.033-.012-.064-.02-.095-.007-.03-.013-.058-.023-.086-.012-.034-.028-.066-.043-.099-.008-.018-.013-.036-.023-.054a8.568 8.568 0 01-1.063-4.144c0-4.756 3.87-8.625 8.625-8.625 4.756 0 8.625 3.869 8.625 8.625 0 4.755-3.87 8.625-8.625 8.625z"/><path d="M16.77 7.667H8.623a.959.959 0 000 1.916h8.145a.959.959 0 000-1.916zM14.853 11.5H10.54a.959.959 0 000 1.917h4.313a.959.959 0 000-1.917z"/></symbol><symbol viewBox="0 0 20 20" id="form" xmlns="http://www.w3.org/2000/svg"><g clip-path="url(#dclip0)"><path d="M13.134 3.693l.005.063.009.06.011.057.015.054.017.05.02.048.022.045.024.043.026.04.028.036.03.035.03.032.033.03.033.028.035.025.035.024.035.021.036.02.036.018.036.016.036.015.036.013.035.012.034.01.034.009.032.008.031.006.03.006.027.005.026.004.025.002.022.003.02.002.017.001.014.001H14.089l.005.001H17.948v15.052l-.003.03-.004.03-.006.028-.007.026-.008.025-.01.023-.01.022-.012.02-.013.02-.013.019-.015.017-.015.015-.015.015-.017.013-.016.013-.017.011-.017.011-.018.01-.017.009-.018.007-.017.007-.017.007-.017.006-.017.005-.016.004-.016.004-.015.003-.014.003-.014.002-.012.002-.012.002h-.01l-.01.002h-.021l-.004.001h-14.5l-.008-.002h-.01l-.01-.001-.012-.002-.013-.002-.013-.002-.014-.003-.015-.003-.016-.004-.016-.004-.017-.005-.017-.006-.017-.007-.017-.007-.018-.008-.017-.008-.018-.01-.017-.01-.017-.012-.017-.013-.016-.013-.015-.015-.015-.016-.015-.017-.013-.018-.013-.02-.012-.02-.01-.022-.01-.024-.008-.025-.007-.026-.006-.028-.004-.03-.002-.03-.001-.032V.39l.002-.022.002-.02.003-.02L2.55.31 2.553.29l.004-.018.005-.017.006-.017.006-.017.007-.015.007-.016.008-.014.008-.015.01-.013.009-.013.01-.013.01-.012L2.656.1l.012-.011.013-.01.013-.01.014-.01L2.72.05l.015-.008.015-.007.016-.007.017-.007L2.8.015 2.82.01l.018-.005.02-.004.019-.003.02-.004.02-.002.022-.002.022-.001.022-.001h10.151v3.638l.001.067zM5.43 17.27h9.631v-.91H5.43v.91zm0-2.729h9.631v-.91H5.43v.91zm0-2.729h9.631v-.91H5.43v.91zm0-2.729h9.631v-.91H5.43v.91zm0-2.729h5.779v-.91h-5.78v.91zm0-2.729h5.779v-.91h-5.78v.91z"/><path d="M17.948 3.986L13.75-.012v3.998h4.2z"/></g><defs><clipPath id="dclip0"><path d="M0 0h20v20H0z"/></clipPath></defs></symbol><symbol viewBox="0 0 20 20" id="message" xmlns="http://www.w3.org/2000/svg"><g clip-path="url(#eclip0)"><path d="M20 4.241l-6.103 5.88 6.096 5.694c.003-.04-.008-.082-.008-.123V4.308A.208.208 0 0020 4.241zM10.473 13.424a.65.65 0 01-.896.007l-2.485-2.315L.957 17.03c.149.053.309.095.477.095h17.175c.25 0 .483-.076.686-.189l-6.33-5.91-2.492 2.398z"/><path d="M19.329 3.084a1.413 1.413 0 00-.72-.21H1.434c-.343 0-.657.134-.902.337l9.482 8.846c5.59-5.383 8.694-8.374 9.315-8.973zM0 15.691c0 .128.03.252.062.37l6.06-5.835L0 4.527v11.164z"/></g><defs><clipPath id="eclip0"><path d="M0 0h20v20H0z"/></clipPath></defs></symbol><symbol viewBox="0 0 11.228 11.229" id="plus" xmlns="http://www.w3.org/2000/svg"><path d="M10.7 5.104H6.088V.492a.492.492 0 00-.984 0v4.612H.492a.492.492 0 000 .984h4.612V10.7a.492.492 0 00.984 0V6.088H10.7a.492.492 0 000-.984z"/></symbol><symbol viewBox="0 0 16 16" id="power" xmlns="http://www.w3.org/2000/svg"><path d="M11.447 2.129a.555.555 0 00-.563.957A5.724 5.724 0 0113.697 8 5.703 5.703 0 018 13.697 5.703 5.703 0 012.303 8a5.724 5.724 0 012.813-4.914.555.555 0 10-.563-.957A6.84 6.84 0 001.193 8 6.815 6.815 0 008 14.808 6.815 6.815 0 0014.808 8a6.84 6.84 0 00-3.361-5.871z"/><path d="M8 .451a.555.555 0 00-.555.556V8a.555.555 0 101.11 0V1.007A.555.555 0 008 .45z"/></symbol><symbol viewBox="0 0 16 16" id="remove" xmlns="http://www.w3.org/2000/svg"><path d="M8 1.046C4.12 1.046.958 4.164.958 8S4.116 14.954 8 14.954 15.042 11.832 15.042 8 11.884 1.046 8 1.046zM8 13.9C4.707 13.9 2.026 11.252 2.026 8c0-3.252 2.68-5.9 5.974-5.9 3.293 0 5.974 2.648 5.974 5.9 0 3.252-2.68 5.9-5.974 5.9z"/><path d="M10.865 5.187a.555.555 0 00-.785 0l-4.945 4.945a.555.555 0 10.785.785l4.945-4.945a.555.555 0 000-.785z"/><path d="M10.865 10.917a.555.555 0 000-.785L5.92 5.187a.555.555 0 00-.785.785l4.945 4.945a.555.555 0 00.785 0z"/></symbol><symbol viewBox="0 0 28 28" id="spinner" xmlns="http://www.w3.org/2000/svg"><path d="M6.381 12.228H0v3.545h6.381v-3.545zM12.231 28h3.542v-6.38H12.23V28zm9.388-15.772v3.545H28v-3.545h-6.381zM12.23 6.382h3.543V.002H12.23v6.38zM2.85 22.647l2.506 2.507 4.51-4.512-2.506-2.506-4.51 4.51zm0-17.294l4.51 4.51L9.866 7.36l-4.51-4.512-2.507 2.506zm15.288 15.287l4.51 4.51 2.508-2.503-4.515-4.513-2.503 2.506z"/></symbol><symbol viewBox="0 0 20 20" id="table" xmlns="http://www.w3.org/2000/svg"><g clip-path="url(#jclip0)"><path d="M13.81 11.128v1.483h-2.968v-1.483h2.967zM13.81 13.353v1.484h-2.968v-1.484h2.967zM13.81 15.579v1.484h-2.968v-1.484h2.967zM17.518 5.193L13.069 0v4.45c0 .446.37.743.742.743h3.708zM13.81 8.902v1.484h-2.968V8.902h2.967zM10.1 15.579v1.484H7.133v-1.484H10.1z"/><path d="M12.327 4.512l.004.06.006.06.008.059.011.058.013.058.015.056.018.056.02.054.021.054.023.053.026.052.027.05.03.05.031.047.033.047.035.045.036.044.038.043.04.041.04.04.043.038.044.036.046.034.046.034.049.03.049.03.05.027.052.026.052.024.054.021.055.02.055.017.057.016.057.012.059.011.059.009.06.006.06.003.06.002h3.71v12.611l-.002.06-.003.061-.006.06-.009.059-.01.058-.014.058-.015.056-.017.056-.02.054-.021.054-.024.053-.026.052-.027.05-.03.05-.03.047-.034.047-.034.045-.037.044-.038.043-.039.041-.041.04-.043.038-.044.036-.045.035-.047.033-.048.03-.05.03-.05.027-.051.026-.053.024-.054.021-.054.02-.056.017-.056.016-.058.012-.058.011-.06.009-.059.006-.06.003-.061.002H4.907l-.06-.002-.06-.003-.06-.006-.06-.009L4.61 20l-.057-.013-.057-.016-.055-.017-.055-.02-.054-.021-.052-.024-.052-.026-.05-.027-.05-.03-.048-.03-.046-.034-.046-.034-.044-.036-.043-.039-.04-.039-.04-.041-.038-.043-.037-.044-.034-.045-.033-.047-.031-.048-.03-.05-.027-.05-.026-.051-.023-.053-.022-.054-.02-.054-.017-.056-.015-.056-.013-.058-.01-.058-.01-.06-.005-.059-.004-.06-.001-.06V1.422l.005-.06.006-.06.008-.06.01-.057.014-.058.015-.056.018-.056.02-.055.02-.053.024-.053.026-.052.027-.05.03-.05.031-.047.033-.047.034-.046.037-.044.038-.042.04-.041.04-.04.043-.038.044-.036.046-.035.046-.033.048-.03.05-.03.05-.028.052-.025.052-.024.054-.021.055-.02.055-.018.057-.015.057-.013.058-.01.06-.01.06-.005.06-.004.06-.001h7.419v4.45l.001.062zM6.391 17.804h8.16V7.418h-8.16v10.386z"/><path d="M10.1 13.353v1.484H7.133v-1.484H10.1zM10.1 11.128v1.483H7.133v-1.483H10.1zM10.1 8.902v1.484H7.133V8.902H10.1z"/></g><defs><clipPath id="jclip0"><path d="M0 0h20v20H0z"/></clipPath></defs></symbol><symbol viewBox="0 0 15 14" id="watch" xmlns="http://www.w3.org/2000/svg"><g clip-path="url(#kclip0)"><path d="M7.274.046C3.394.046.232 3.165.232 7c0 3.836 3.158 6.954 7.042 6.954 3.885 0 7.042-3.122 7.042-6.954S11.158.046 7.274.046zm0 12.853C3.981 12.9 1.3 10.252 1.3 7c0-3.252 2.681-5.9 5.974-5.9 3.294 0 5.974 2.648 5.974 5.9 0 3.252-2.68 5.9-5.974 5.9z"/><path d="M7.62 7.735V4.328H6.552V8.29l2.752 1.853.601-.872L7.62 7.735z"/></g><defs><clipPath id="kclip0"><path transform="matrix(1 0 0 -1 .14 14)" d="M0 0h14.177v14H0z"/></clipPath></defs></symbol></svg>