<svg width="23" height="23" viewBox="0 0 23 23" fill="none" xmlns="http://www.w3.org/2000/svg">
    <path d="M12.4569 0C6.64423 0 1.91526 4.72896 1.91526 10.5417C1.91526 12.1565 2.28938 13.7473 2.99432 15.178L0.0828247 21.6488C0.0786133 21.658 0.0776774 21.6676 0.0737 21.6764C0.0608317 21.7083 0.0507711 21.7408 0.0411784 21.7738C0.0329895 21.8021 0.0238648 21.8304 0.0182495 21.8587C0.0119324 21.8894 0.0100606 21.92 0.00678506 21.9511C0.00374349 21.9822 0 22.0129 0 22.0435C0 22.0737 0.00374349 22.1039 0.00678506 22.1346C0.0100606 22.1661 0.0124003 22.198 0.0187174 22.2286C0.0243327 22.2569 0.0334575 22.2845 0.0416463 22.3128C0.051239 22.3458 0.0612997 22.3786 0.0741679 22.4102C0.0781454 22.4193 0.0795491 22.4294 0.0837606 22.4385C0.0886739 22.449 0.0973307 22.4567 0.10201 22.4668C0.135234 22.5332 0.175008 22.5955 0.222738 22.653C0.230459 22.6621 0.236308 22.6722 0.243795 22.6809C0.29714 22.7403 0.358907 22.7915 0.42746 22.8372C0.444773 22.8486 0.462789 22.8577 0.481038 22.8678C0.508413 22.8835 0.533681 22.9017 0.563395 22.9153C0.591237 22.9277 0.620015 22.9333 0.647858 22.9429C0.671254 22.9511 0.693949 22.9598 0.717814 22.9661C0.796895 22.9867 0.876912 23 0.955994 23H0.956462H0.956929C1.03648 23 1.1165 22.9867 1.19558 22.9656C1.22085 22.9588 1.24448 22.9497 1.26928 22.941C1.29712 22.9314 1.32543 22.9258 1.35327 22.9132L7.79231 19.986C9.23589 20.7034 10.8369 21.0833 12.4569 21.0833C18.2696 21.0833 22.9986 16.3544 22.9986 10.5417C22.9986 4.72896 18.2696 0 12.4569 0V0ZM12.4569 19.1667C10.997 19.1667 9.55409 18.793 8.28481 18.0853C8.26516 18.0743 8.2441 18.0684 8.22398 18.0588C8.19333 18.0446 8.16315 18.0296 8.13156 18.0186C8.10068 18.0081 8.06956 18.0008 8.03844 17.9935C8.00966 17.987 7.98159 17.9797 7.95187 17.9755C7.91912 17.9706 7.8866 17.9697 7.85407 17.9688C7.82436 17.9678 7.79558 17.9664 7.76587 17.9678C7.73335 17.9697 7.70176 17.9751 7.66947 17.9797C7.64023 17.9847 7.61098 17.9884 7.58197 17.9961C7.54781 18.0048 7.51529 18.0172 7.4823 18.0296C7.46218 18.0373 7.44136 18.041 7.4217 18.0502L2.87313 20.1177L4.93111 15.5441C4.93977 15.525 4.94351 15.5053 4.95076 15.4856C4.9627 15.4531 4.9751 15.4211 4.98375 15.3869C4.99148 15.3567 4.99615 15.3261 5.0006 15.2954C5.00528 15.2652 5.01019 15.2351 5.0116 15.2044C5.01347 15.1724 5.01206 15.1412 5.01066 15.1097C5.00926 15.0795 5.00832 15.0493 5.00388 15.0191C4.99966 14.9868 4.99194 14.9557 4.98422 14.9246C4.9772 14.8958 4.97089 14.8675 4.96083 14.8394C4.94889 14.8053 4.93345 14.7727 4.91824 14.7402C4.90959 14.7224 4.90467 14.7037 4.89508 14.6859C4.19996 13.4314 3.83193 11.9984 3.83193 10.5417C3.83193 5.78603 7.70106 1.91667 12.4569 1.91667C17.2126 1.91667 21.0819 5.78603 21.0819 10.5417C21.0819 15.2973 17.2126 19.1667 12.4569 19.1667Z"
          fill="#78909D" />
    <path d="M16.7694 7.66666H8.62362C8.09461 7.66666 7.66528 8.09599 7.66528 8.62499C7.66528 9.15399 8.09461 9.58332 8.62362 9.58332H16.7694C17.2984 9.58332 17.7278 9.15399 17.7278 8.62499C17.7278 8.09599 17.2984 7.66666 16.7694 7.66666Z"
          fill="#78909D" />
    <path d="M14.8529 11.5H10.5404C10.0114 11.5 9.58203 11.9293 9.58203 12.4583C9.58203 12.9873 10.0114 13.4167 10.5404 13.4167H14.8529C15.3819 13.4167 15.8112 12.9873 15.8112 12.4583C15.8112 11.9293 15.3819 11.5 14.8529 11.5Z"
          fill="#78909D" />
</svg>
