<svg width="20" height="20" viewBox="0 0 20 20" fill="none" xmlns="http://www.w3.org/2000/svg">
<g clip-path="url(#clip0)">
<path d="M13.1342 3.69287L13.1395 3.75599L13.148 3.81599L13.1595 3.87287L13.1739 3.92662L13.1911 3.97724L13.2108 4.02505L13.2327 4.07006L13.257 4.11256L13.283 4.15224L13.3111 4.18912L13.3408 4.22381L13.3717 4.25599L13.4039 4.28599L13.4373 4.31381L13.4717 4.33943L13.5067 4.36287L13.5423 4.38443L13.5783 4.40412L13.6142 4.42224L13.6505 4.43849L13.6861 4.45287L13.7217 4.46599L13.7567 4.47756L13.7911 4.48787L13.8245 4.49693L13.8567 4.50474L13.888 4.51131L13.9173 4.51693L13.9455 4.52162L13.9714 4.52568L13.9958 4.52849L14.0177 4.53099L14.0373 4.53287L14.0545 4.53412L14.0689 4.53506L14.0805 4.53537L14.0889 4.53568L14.0942 4.53599H14.0958H17.9483V19.5554L17.9474 19.5879L17.9449 19.6188L17.9408 19.6479L17.9352 19.6757L17.9283 19.702L17.9199 19.727L17.9105 19.7504L17.8999 19.7723L17.888 19.7929L17.8755 19.8123L17.8617 19.8307L17.8474 19.8476L17.8324 19.8632L17.8167 19.8779L17.8005 19.8913L17.7839 19.9041L17.767 19.9154L17.7499 19.926L17.7324 19.9357L17.7149 19.9445L17.6974 19.9523L17.6802 19.9595L17.663 19.966L17.6458 19.9716L17.6292 19.9766L17.613 19.981L17.5974 19.9848L17.5824 19.9882L17.568 19.9907L17.5545 19.9932L17.5417 19.9951L17.5302 19.9966L17.5195 19.9976L17.5099 19.9985L17.5017 19.9991L17.4945 19.9998H17.4892L17.4849 20.0001H17.4824H17.4817H3.00545H3.00451H3.00201L2.99795 19.9998H2.99232L2.98514 19.9991L2.97701 19.9985L2.96732 19.9976L2.9567 19.9966L2.94514 19.9951L2.93232 19.9932L2.91889 19.9907L2.90451 19.9879L2.88951 19.9848L2.87389 19.981L2.85764 19.9766L2.84107 19.9716L2.8242 19.966L2.80701 19.9595L2.78951 19.9523L2.77201 19.9445L2.75451 19.9357L2.73701 19.926L2.71982 19.9154L2.70295 19.9038L2.68639 19.8913L2.67014 19.8776L2.65451 19.8629L2.63951 19.8473L2.62514 19.8301L2.6117 19.812L2.59889 19.7926L2.58732 19.772L2.5767 19.7498L2.56701 19.7263L2.55857 19.7013L2.5517 19.6751L2.54607 19.6473L2.54201 19.6179L2.53951 19.587L2.53857 19.5545V0.43255L2.53889 0.410362L2.53982 0.389112L2.54139 0.368174L2.54326 0.347862L2.54607 0.328174L2.5492 0.309112L2.55295 0.290362L2.55732 0.272237L2.56232 0.254737L2.56795 0.237862L2.57389 0.221299L2.58076 0.205674L2.58795 0.190362L2.59576 0.175674L2.6042 0.161299L2.61326 0.147862L2.62295 0.134737L2.63326 0.122237L2.64389 0.110362L2.65545 0.098799L2.66732 0.0878615L2.67982 0.077549L2.69295 0.0678615L2.7067 0.0587989L2.72107 0.0500489L2.73576 0.0422364L2.75139 0.0347364L2.76732 0.0275489L2.78389 0.0212989L2.80107 0.0153614L2.81889 0.0100489L2.83732 0.00536136L2.85639 0.00129885L2.87576 -0.00245116L2.89607 -0.00557616L2.9167 -0.00807616L2.93795 -0.00995117L2.95982 -0.0112012L2.98232 -0.0121387L3.00545 -0.0124512H13.1327V3.6263L13.1342 3.69287ZM5.42858 17.271H15.0602V16.3613H5.42858V17.271ZM5.42858 14.5423H15.0602V13.6326H5.42858V14.5423ZM5.42858 11.8132H15.0602V10.9035H5.42858V11.8132ZM5.42858 9.08413H15.0602V8.17444H5.42858V9.08413ZM5.42858 6.35506H11.2077V5.44568H5.42858V6.35506ZM5.42858 3.6263H11.2077V2.71662H5.42858V3.6263Z" fill="#748B96"/>
<path d="M17.9483 3.98599L13.7495 -0.0124512V3.98599H17.9483Z" fill="#748B96"/>
</g>
<defs>
<clipPath id="clip0">
<rect width="20" height="20" fill="white"/>
</clipPath>
</defs>
</svg>
