<svg width="20" height="20" viewBox="0 0 20 20" fill="none" xmlns="http://www.w3.org/2000/svg">
<g clip-path="url(#clip0)">
<path d="M20.0002 4.24097C19.5933 4.63284 17.5586 6.59315 13.8967 10.1219C17.5542 13.5375 19.5864 15.4353 19.9927 15.8147C19.9964 15.7741 19.9855 15.7332 19.9855 15.6916C19.9855 14.9328 19.9855 11.1385 19.9855 4.30847C19.9958 4.27847 20.0008 4.25597 20.0002 4.24097Z" fill="#748B96"/>
<path d="M10.4734 13.4237C10.3472 13.5453 10.1844 13.6059 10.0215 13.6059C9.86186 13.6059 9.70248 13.5478 9.57717 13.4312C9.41154 13.2769 8.58342 12.505 7.09248 11.1156C3.41092 14.6644 1.36561 16.6356 0.956543 17.03C1.10592 17.0834 1.26592 17.1253 1.43373 17.1253C3.15123 17.1253 16.8919 17.1253 18.6094 17.1253C18.8584 17.1253 19.0922 17.0494 19.295 16.9362C18.8731 16.5422 16.7631 14.5725 12.965 11.0269C11.47 12.465 10.6394 13.264 10.4734 13.4237Z" fill="#748B96"/>
<path d="M19.329 3.08444C19.1181 2.95913 18.8725 2.87476 18.6093 2.87476C16.8918 2.87476 3.15122 2.87476 1.43372 2.87476C1.09122 2.87476 0.777158 3.00788 0.532471 3.21069C1.16466 3.80069 4.32528 6.74944 10.0143 12.0569C15.6031 6.67351 18.7078 3.68257 19.329 3.08444Z" fill="#748B96"/>
<path d="M0 15.6914C0 15.8195 0.029375 15.9433 0.0615625 16.0614C0.465313 15.6723 2.48531 13.7273 6.12125 10.2261L0 4.52734C0 11.2258 0 14.9473 0 15.6914Z" fill="#748B96"/>
</g>
<defs>
<clipPath id="clip0">
<rect width="20" height="20" fill="white"/>
</clipPath>
</defs>
</svg>
