<?xml version="1.0" encoding="utf-8"?>
<svg width="12" height="12" viewBox="0 0 11.228 11.229" fill="none" xmlns="http://www.w3.org/2000/svg">
    <path d="M10.6995 5.10371H6.08774V0.491998C6.08774 0.220326 5.86742 0 5.59574 0C5.32407 0 5.10375 0.220326 5.10375 0.491998V5.10371H0.491998C0.22025 5.10371 0 5.32403 0 5.59571C0 5.86745 0.220288 6.0877 0.491998 6.0877H5.10375V10.6995C5.10375 10.9712 5.32407 11.1915 5.59574 11.1915C5.86742 11.1915 6.08774 10.9712 6.08774 10.6995V6.0877H10.6995C10.9711 6.0877 11.1915 5.86742 11.1915 5.59571C11.1915 5.324 10.9712 5.10371 10.6995 5.10371Z"
          fill="white" />
</svg>
