<svg xmlns="http://www.w3.org/2000/svg" viewBox="0 0 16 16">
    <path d="M11.4468 2.1286C11.1825 1.9731 10.8421 2.06148 10.6866 2.32581C10.5312 2.59015 10.6194 2.93052 10.8838 3.08598C12.6191 4.10648 13.697 5.98944 13.697 8.00002C13.697 11.1414 11.1414 13.6971 8.00001 13.6971C4.85863 13.6971 2.30297 11.1414 2.30297 8.00002C2.30297 5.98944 3.38088 4.10648 5.11617 3.08598C5.38055 2.93056 5.46884 2.59019 5.31338 2.32581C5.15797 2.06144 4.81763 1.97323 4.55322 2.1286C2.48017 3.34781 1.19238 5.5976 1.19238 8.00002C1.19238 11.7538 4.24626 14.8077 8.00005 14.8077C11.7538 14.8077 14.8077 11.7538 14.8076 8.00002C14.8076 5.59765 13.5198 3.34781 11.4468 2.1286Z" />
    <path d="M7.99991 0.451294C7.69321 0.451294 7.44458 0.699961 7.44458 1.00663V7.99996C7.44458 8.30667 7.69321 8.55529 7.99991 8.55529C8.30662 8.55529 8.55525 8.30667 8.55525 7.99996V1.00663C8.55525 0.700002 8.30662 0.451294 7.99991 0.451294Z" />
</svg>
