<svg viewBox="0 0 16 16" xmlns="http://www.w3.org/2000/svg">
    <path d="M7.999998747215271,1.0460710744262696 C4.119458747215271,1.0460710744262696 0.958060747215271,4.16442847442627 0.958060747215271,7.999978474426269 C0.958060747215271,11.835528474426269 4.115898747215271,14.95392847442627 7.999998747215271,14.95392847442627 C11.884138747215271,14.95392847442627 15.041938747215271,11.83202847442627 15.041938747215271,7.999978474426269 C15.041938747215271,4.16794847442627 11.884138747215271,1.0460710744262696 7.999998747215271,1.0460710744262696 zM7.999998747215271,13.89922847442627 C4.706878747215271,13.89922847442627 2.026098747215271,11.25192847442627 2.026098747215271,7.999978474426269 C2.026098747215271,4.7480284744262695 4.706878747215271,2.1007584744262697 7.999998747215271,2.1007584744262697 C11.293138747215272,2.1007584744262697 13.973938747215271,4.7480284744262695 13.973938747215271,7.999978474426269 C13.973938747215271,11.25192847442627 11.293138747215272,13.89922847442627 7.999998747215271,13.89922847442627 z" />
    <path d="M10.8653 5.18675C10.6485 4.96987 10.2968 4.9699 10.08 5.18675L5.13494 10.1318C4.91807 10.3487 4.91807 10.7003 5.13494 10.9171C5.35182 11.134 5.70343 11.134 5.9203 10.9171L10.8653 5.97211C11.0822 5.75529 11.0822 5.40362 10.8653 5.18675Z"
          fill="currentColor" />
    <path d="M10.8654 10.9171C11.0823 10.7002 11.0822 10.3486 10.8654 10.1317L5.92034 5.1867C5.70347 4.96983 5.35186 4.96983 5.13498 5.1867C4.91811 5.40358 4.91811 5.75518 5.13498 5.97206L10.08 10.9171C10.2968 11.1339 10.6485 11.134 10.8654 10.9171Z"
          fill="currentColor" />
</svg>
