<svg width="20" height="20" viewBox="0 0 20 20" fill="none" xmlns="http://www.w3.org/2000/svg">
<g clip-path="url(#clip0)">
<path d="M13.8095 11.1277C13.8095 12.0177 13.8095 12.5124 13.8095 12.6112C12.0289 12.6112 11.0399 12.6112 10.842 12.6112C10.842 11.7211 10.842 11.2264 10.842 11.1277C12.6227 11.1277 13.6117 11.1277 13.8095 11.1277Z" fill="#748B96"/>
<path d="M13.8095 13.353C13.8095 14.2433 13.8095 14.738 13.8095 14.8368C12.0289 14.8368 11.0399 14.8368 10.842 14.8368C10.842 13.9465 10.842 13.4521 10.842 13.353C12.6227 13.353 13.6117 13.353 13.8095 13.353Z" fill="#748B96"/>
<path d="M13.8095 15.5789C13.8095 16.4692 13.8095 16.9635 13.8095 17.0626C12.0289 17.0626 11.0399 17.0626 10.842 17.0626C10.842 16.1723 10.842 15.6776 10.842 15.5789C12.6227 15.5789 13.6117 15.5789 13.8095 15.5789Z" fill="#748B96"/>
<path d="M17.5185 5.1928L13.0676 0C13.0676 2.67062 13.0676 4.15436 13.0676 4.45092C13.0676 4.89624 13.4386 5.1928 13.8095 5.1928C14.3039 5.1928 15.5404 5.1928 17.5185 5.1928Z" fill="#748B96"/>
<path d="M13.8095 8.9021C13.8095 9.7921 13.8095 10.2868 13.8095 10.3858C12.0289 10.3858 11.0399 10.3858 10.842 10.3858C10.842 9.49554 10.842 9.00085 10.842 8.9021C12.6227 8.9021 13.6117 8.9021 13.8095 8.9021Z" fill="#748B96"/>
<path d="M10.1003 15.5789C10.1003 16.4692 10.1003 16.9635 10.1003 17.0626C8.31994 17.0626 7.33087 17.0626 7.13306 17.0626C7.13306 16.1723 7.13306 15.6776 7.13306 15.5789C8.91338 15.5789 9.90245 15.5789 10.1003 15.5789Z" fill="#748B96"/>
<path d="M12.327 4.51188L12.3308 4.57219L12.3367 4.63188L12.3451 4.69094L12.3561 4.74906L12.3692 4.80656L12.3842 4.86312L12.4017 4.91875L12.4214 4.97344L12.443 5.02719L12.4664 5.07969L12.492 5.13156L12.5195 5.18188L12.5489 5.23125L12.5801 5.27906L12.613 5.32594L12.6476 5.37125L12.6839 5.41531L12.722 5.45781L12.7617 5.49906L12.8026 5.53844L12.8451 5.57656L12.8892 5.61281L12.9345 5.6475L12.9814 5.68062L13.0295 5.71156L13.0786 5.74094L13.1292 5.76844L13.1808 5.79406L13.2333 5.81781L13.287 5.83938L13.3417 5.85875L13.3973 5.87625L13.4539 5.89156L13.5114 5.90438L13.5695 5.91531L13.6286 5.92375L13.6883 5.92969L13.7486 5.93344L13.8095 5.93469H17.5186V18.5462L17.5173 18.6069L17.5136 18.6672L17.5076 18.7269L17.4992 18.7859L17.4883 18.8441L17.4755 18.9016L17.4601 18.9581L17.4426 19.0138L17.4233 19.0684L17.4017 19.1222L17.378 19.175L17.3523 19.2266L17.3248 19.2769L17.2955 19.3263L17.2645 19.3741L17.2314 19.4209L17.1967 19.4662L17.1605 19.5103L17.1223 19.5528L17.083 19.5941L17.0417 19.6334L16.9992 19.6716L16.9551 19.7078L16.9098 19.7425L16.863 19.7756L16.8151 19.8066L16.7658 19.8359L16.7155 19.8634L16.6636 19.8891L16.6111 19.9128L16.5573 19.9344L16.5026 19.9538L16.447 19.9713L16.3905 19.9866L16.333 19.9994L16.2748 20.0103L16.2158 20.0187L16.1561 20.025L16.0958 20.0284L16.0348 20.0297H4.90733L4.8464 20.0284L4.78608 20.025L4.7264 20.0187L4.66733 20.0103L4.60921 19.9994L4.55171 19.9866L4.49546 19.9713L4.43952 19.9538L4.38483 19.9344L4.33108 19.9128L4.27858 19.8891L4.22702 19.8634L4.1764 19.8359L4.12733 19.8066L4.07921 19.7756L4.03265 19.7425L3.98702 19.7078L3.94327 19.6716L3.90046 19.6334L3.85952 19.5941L3.81983 19.5528L3.78202 19.5103L3.74546 19.4662L3.71077 19.4209L3.67796 19.3741L3.64671 19.3263L3.61733 19.2769L3.58983 19.2266L3.56421 19.175L3.54077 19.1222L3.51921 19.0684L3.49952 19.0138L3.48233 18.9581L3.46702 18.9016L3.4539 18.8441L3.44327 18.7859L3.43452 18.7269L3.42858 18.6672L3.42483 18.6069L3.42358 18.5462V1.48375L3.42483 1.42281L3.42858 1.3625L3.43452 1.30281L3.44327 1.24375L3.4539 1.18562L3.46702 1.12812L3.48233 1.07156L3.49952 1.01594L3.51921 0.96125L3.54077 0.9075L3.56421 0.855L3.58983 0.803437L3.61733 0.752813L3.64671 0.70375L3.67796 0.655625L3.71077 0.60875L3.74546 0.563438L3.78202 0.519375L3.81983 0.476875L3.85952 0.435937L3.90046 0.39625L3.94327 0.358125L3.98702 0.321875L4.03265 0.287187L4.07921 0.254375L4.12733 0.223125L4.1764 0.19375L4.22702 0.16625L4.27858 0.140625L4.33108 0.117188L4.38483 0.095625L4.43952 0.0759375L4.49546 0.0584375L4.55171 0.0434375L4.60921 0.0303125L4.66733 0.019375L4.7264 0.0109375L4.78608 0.005L4.8464 0.00125L4.90733 0H12.3258V4.45094L12.327 4.51188ZM6.39108 17.8044H14.5514V7.41844H6.39108V17.8044Z" fill="#748B96"/>
<path d="M10.1003 13.353C10.1003 14.2433 10.1003 14.738 10.1003 14.8368C8.31994 14.8368 7.33087 14.8368 7.13306 14.8368C7.13306 13.9465 7.13306 13.4521 7.13306 13.353C8.91338 13.353 9.90245 13.353 10.1003 13.353Z" fill="#748B96"/>
<path d="M10.1003 11.1277C10.1003 12.0177 10.1003 12.5124 10.1003 12.6112C8.31994 12.6112 7.33087 12.6112 7.13306 12.6112C7.13306 11.7211 7.13306 11.2264 7.13306 11.1277C8.91338 11.1277 9.90245 11.1277 10.1003 11.1277Z" fill="#748B96"/>
<path d="M10.1003 8.9021C10.1003 9.7921 10.1003 10.2868 10.1003 10.3858C8.31994 10.3858 7.33087 10.3858 7.13306 10.3858C7.13306 9.49554 7.13306 9.00085 7.13306 8.9021C8.91338 8.9021 9.90245 8.9021 10.1003 8.9021Z" fill="#748B96"/>
</g>
<defs>
<clipPath id="clip0">
<rect width="20" height="20" fill="white"/>
</clipPath>
</defs>
</svg>
