<svg width="15" height="14" viewBox="0 0 15 14" fill="none" xmlns="http://www.w3.org/2000/svg">
    <g clip-path="url(#clip0)">
        <path d="M7.27436 0.0461426C3.39382 0.0461426 0.232422 3.1645 0.232422 7.00005C0.232422 10.8356 3.39026 13.954 7.27436 13.954C11.1585 13.954 14.3163 10.8321 14.3163 7.00005C14.3163 3.16802 11.1585 0.0461426 7.27436 0.0461426ZM7.27436 12.8993C3.98124 12.8993 1.30046 10.252 1.30046 7.00005C1.30046 3.7481 3.98124 1.10083 7.27436 1.10083C10.5675 1.10083 13.2483 3.7481 13.2483 7.00005C13.2483 10.252 10.5675 12.8993 7.27436 12.8993Z"
              fill="#748B96" />
        <path d="M7.6198 7.73477V4.32812H6.55176V8.29024L9.30374 10.143L9.9054 9.2711L7.6198 7.73477Z" fill="#748B96" />
    </g>
    <defs>
        <clipPath id="clip0">
            <rect width="14.1772" height="14" fill="white" transform="matrix(1 0 0 -1 0.13916 14)" />
        </clipPath>
    </defs>
</svg>
